#!OML:ASF X:\für Bonn\!DataBase\2005_08_10_Bjorn_Final\c3d\bjorn.ASF
:FULLY-SPECIFIED
:DEGREES
159
root 2.91879 17.6718 1.94238 -212.898 -5.0978 182.035
lowerback 5.22693 4.04382 1.54681
upperback 15.2252 3.17536 -3.93198
thorax 14.1348 0.913753 -5.30141
lowerneck 7.15893 2.72833 -7.00595
upperneck 10.0934 1.80279 9.40908
head 1.83922 0.408272 4.37834
rclavicle 6.75868e-015 7.95139e-015
rhumerus -35.6801 10.477 -76.3432
rradius 33.3242
rwrist -1.55476
rhand -18.5378 24.2499
rfingers 7.12502
rthumb 7.75128 -5.58805
lclavicle 6.75868e-015 7.95139e-015
lhumerus 21.6319 -0.909362 37.6196
lradius 103.132
lwrist -0.240091
lhand -53.1422 -17.1224
lfingers 7.12502
lthumb -25.602 11.1767
rfemur 17.533 -5.99521 18.9228
rtibia 43.48
rfoot -24.6536 16.962
rtoes -6.96126
lfemur -34.4272 12.4479 -19.9308
ltibia 37.5032
lfoot -8.92168 0.0392029
ltoes -13.8587
160
root 2.89721 17.6801 2.01473 -212.379 -5.3961 182.097
lowerback 5.40581 3.97107 1.46175
upperback 15.2373 3.0665 -3.85723
thorax 14.0096 0.842488 -5.17922
lowerneck 6.96109 2.63306 -7.16684
upperneck 9.69458 1.76991 9.31364
head 1.744 0.415682 4.37275
rclavicle 1.42131e-014 1.43125e-014
rhumerus -35.2462 10.6156 -76.3573
rradius 33.2932
rwrist -1.32583
rhand -18.464 24.3153
rfingers 7.12502
rthumb 7.82246 -5.51998
lclavicle 1.42131e-014 1.43125e-014
lhumerus 21.8701 -1.28761 37.1349
lradius 103.07
lwrist -0.357592
lhand -53.1059 -17.2319
lfingers 7.12502
lthumb -25.5672 11.0722
rfemur 16.5553 -6.25587 18.7636
rtibia 43.83
rfoot -24.6271 16.9727
rtoes -7.25448
lfemur -33.511 11.8917 -19.9451
ltibia 38.2941
lfoot -8.5252 -0.979731
ltoes -13.076
161
root 2.87647 17.6931 2.08738 -211.846 -5.68433 182.183
lowerback 5.53952 3.89732 1.37907
upperback 15.2998 2.94378 -3.75163
thorax 13.9731 0.759753 -5.0271
lowerneck 6.54749 2.52311 -7.38265
upperneck 9.37903 1.725 9.22847
head 1.71631 0.422136 4.3865
rclavicle 2.32578e-014 -4.77083e-015
rhumerus -34.7115 10.7146 -76.3213
rradius 33.3066
rwrist -1.14384
rhand -18.325 24.3167
rfingers 7.12502
rthumb 7.95663 -5.51353
lclavicle 2.32578e-014 -4.77083e-015
lhumerus 22.0732 -1.62102 36.6613
lradius 103
lwrist -0.358034
lhand -53.0916 -17.5167
lfingers 7.12502
lthumb -25.5535 10.7893
rfemur 15.5875 -6.46004 18.701
rtibia 44.1175
rfoot -24.5897 16.8668
rtoes -7.46296
lfemur -32.6544 11.4273 -19.9355
ltibia 39.2398
lfoot -8.05081 -1.96018
ltoes -12.096
162
root 2.85627 17.7103 2.16229 -211.272 -5.98905 182.282
lowerback 5.64615 3.8274 1.33906
upperback 15.3688 2.82593 -3.68178
thorax 13.9708 0.687481 -4.93903
lowerneck 6.05902 2.39426 -7.51688
upperneck 9.0846 1.6575 9.18308
head 1.71186 0.421182 4.40003
rclavicle -1.39149e-014 4.77083e-015
rhumerus -34.1999 10.614 -76.3204
rradius 33.3626
rwrist -0.789081
rhand -18.1616 24.2836
rfingers 7.12502
rthumb 8.11441 -5.54065
lclavicle -1.39149e-014 4.77083e-015
lhumerus 22.27 -1.97048 36.1288
lradius 102.953
lwrist -0.233162
lhand -53.0762 -17.9273
lfingers 7.12502
lthumb -25.5387 10.3809
rfemur 14.5934 -6.63236 18.6994
rtibia 44.3581
rfoot -24.5732 16.6589
rtoes -7.64
lfemur -31.8848 10.9865 -19.9128
ltibia 40.3342
lfoot -7.74563 -2.62716
ltoes -12.0046
163
root 2.83558 17.7301 2.23766 -210.72 -6.2943 182.372
lowerback 5.76753 3.75356 1.2856
upperback 15.4526 2.69682 -3.5984
thorax 13.9751 0.604971 -4.82999
lowerneck 5.5411 2.27399 -7.7111
upperneck 8.81935 1.59442 9.17553
head 1.72201 0.420035 4.44022
rclavicle -1.82882e-014 3.49861e-014
rhumerus -33.7303 10.4917 -76.3229
rradius 33.4731
rwrist -0.431962
rhand -18.0576 24.195
rfingers 7.12502
rthumb 8.21477 -5.62535
lclavicle -1.82882e-014 3.49861e-014
lhumerus 22.3976 -2.32112 35.6273
lradius 102.871
lwrist -0.0455835
lhand -53.0634 -18.402
lfingers 7.12502
lthumb -25.5265 9.9079
rfemur 13.6434 -6.74863 18.7212
rtibia 44.5481
rfoot -24.4875 16.4466
rtoes -7.43736
lfemur -31.1061 10.588 -19.8731
ltibia 41.5827
lfoot -7.76914 -2.99547
ltoes -13.3987
164
root 2.81255 17.7479 2.31498 -210.129 -6.61574 182.413
lowerback 5.90296 3.67045 1.20233
upperback 15.4959 2.56638 -3.53195
thorax 13.9189 0.522308 -4.72022
lowerneck 5.16689 2.16269 -7.90366
upperneck 8.68009 1.48813 9.50452
head 1.55648 0.41228 4.15626
rclavicle -8.34896e-015 5.725e-014
rhumerus -33.4124 10.4776 -76.4131
rradius 33.6241
rwrist -0.132729
rhand -18.145 24.0691
rfingers 7.12502
rthumb 8.13036 -5.7545
lclavicle -8.34896e-015 5.725e-014
lhumerus 22.3986 -2.72733 35.1229
lradius 102.789
lwrist 0.19421
lhand -53.0589 -18.7936
lfingers 7.12502
lthumb -25.5222 9.51696
rfemur 12.6588 -6.84837 18.6899
rtibia 44.7148
rfoot -24.4202 16.2034
rtoes -7.42313
lfemur -30.3633 10.1354 -19.8637
ltibia 42.9745
lfoot -8.12345 -3.07408
ltoes -15.507
165
root 2.78958 17.7677 2.39212 -209.553 -6.94621 182.449
lowerback 6.05801 3.5954 1.14745
upperback 15.5192 2.45186 -3.49541
thorax 13.8327 0.454307 -4.65751
lowerneck 4.85944 2.04992 -8.03037
upperneck 8.39639 1.40888 9.54101
head 1.5288 0.394273 4.18854
rclavicle 6.55989e-015 3.02153e-014
rhumerus -33.2149 10.3309 -76.576
rradius 33.736
rwrist 0.318578
rhand -18.3702 24.0295
rfingers 7.12502
rthumb 7.91304 -5.80241
lclavicle 6.55989e-015 3.02153e-014
lhumerus 22.3181 -3.24947 34.5741
lradius 102.679
lwrist 0.288541
lhand -53.1194 -18.7403
lfingers 7.12502
lthumb -25.5801 9.56192
rfemur 11.7189 -6.91278 18.6734
rtibia 44.8323
rfoot -24.3102 15.929
rtoes -7.19781
lfemur -29.6011 9.64386 -19.8204
ltibia 44.51
lfoot -8.69568 -2.84844
ltoes -17.5356
166
root 2.76653 17.7915 2.47154 -208.955 -7.2682 182.473
lowerback 6.21051 3.51553 1.08249
upperback 15.5228 2.33644 -3.45735
thorax 13.7229 0.386401 -4.58548
lowerneck 4.5899 1.93955 -8.16893
upperneck 8.1211 1.3271 9.56498
head 1.49806 0.372168 4.21873
rclavicle -6.75868e-015 4.45278e-014
rhumerus -33.0797 10.183 -76.7628
rradius 33.8465
rwrist 0.737718
rhand -18.5573 24.0045
rfingers 7.12502
rthumb 7.73241 -5.83408
lclavicle -6.75868e-015 4.45278e-014
lhumerus 22.0903 -3.75062 34.1016
lradius 102.519
lwrist 0.0234257
lhand -53.2009 -18.269
lfingers 7.12502
lthumb -25.6582 10.022
rfemur 10.7755 -6.97689 18.6453
rtibia 44.8895
rfoot -24.1514 15.6781
rtoes -6.94228
lfemur -28.8742 9.18197 -19.7622
ltibia 46.1813
lfoot -9.3257 -2.33032
ltoes -18.436
167
root 2.74393 17.8231 2.55307 -208.322 -7.59473 182.471
lowerback 6.35457 3.42773 0.987571
upperback 15.4861 2.22306 -3.43655
thorax 13.5672 0.320947 -4.51229
lowerneck 4.41582 1.84734 -8.30959
upperneck 7.84414 1.25463 9.62878
head 1.45 0.35003 4.26082
rclavicle -2.5842e-015 3.18055e-014
rhumerus -33.0768 10.0864 -77.0228
rradius 34.0039
rwrist 1.03914
rhand -18.7089 23.9645
rfingers 7.12502
rthumb 7.5861 -5.87941
lclavicle -2.5842e-015 3.18055e-014
lhumerus 21.7303 -4.28552 33.6774
lradius 102.369
lwrist -0.269466
lhand -53.2452 -17.6453
lfingers 7.12502
lthumb -25.7007 10.6396
rfemur 9.83011 -7.03801 18.592
rtibia 44.8638
rfoot -23.9503 15.4081
rtoes -6.65459
lfemur -28.195 8.75968 -19.7086
ltibia 47.9652
lfoot -9.95578 -1.44678
ltoes -18.2186
168
root 2.72048 17.8622 2.63725 -207.664 -7.89474 182.441
lowerback 6.49453 3.33856 0.874378
upperback 15.4196 2.11596 -3.41892
thorax 13.3771 0.259265 -4.42936
lowerneck 4.32236 1.76581 -8.44187
upperneck 7.55526 1.19025 9.66472
head 1.3853 0.328399 4.29237
rclavicle -6.75868e-015 1.27222e-014
rhumerus -33.1753 10.0691 -77.3482
rradius 34.181
rwrist 1.18964
rhand -18.8091 23.9119
rfingers 7.12502
rthumb 7.48942 -5.93547
lclavicle -6.75868e-015 1.27222e-014
lhumerus 21.2683 -4.87899 33.2665
lradius 102.205
lwrist -0.454211
lhand -53.3316 -17.0363
lfingers 7.12502
lthumb -25.7834 11.2366
rfemur 8.90191 -7.05639 18.5272
rtibia 44.7542
rfoot -23.6699 15.1594
rtoes -6.22997
lfemur -27.5382 8.37064 -19.6401
ltibia 49.835
lfoot -10.5047 -0.292897
ltoes -17.2805
169
root 2.69661 17.9033 2.72163 -206.986 -8.1312 182.403
lowerback 6.62048 3.2549 0.780408
upperback 15.3339 2.02112 -3.40855
thorax 13.1761 0.208315 -4.36295
lowerneck 4.23113 1.69061 -8.56367
upperneck 7.30089 1.1302 9.68513
head 1.3304 0.307763 4.31769
rclavicle -1.33186e-014 -6.20208e-014
rhumerus -33.3054 10.0031 -77.7109
rradius 34.34
rwrist 1.31173
rhand -18.8872 23.9044
rfingers 7.12502
rthumb 7.41403 -5.94567
lclavicle -1.33186e-014 -6.20208e-014
lhumerus 20.7323 -5.54177 32.8279
lradius 102.025
lwrist -0.460087
lhand -53.3883 -16.3376
lfingers 7.12502
lthumb -25.8377 11.9273
rfemur 7.97812 -7.01036 18.4964
rtibia 44.5885
rfoot -23.3738 14.8644
rtoes -5.83319
lfemur -26.8698 7.99654 -19.5285
ltibia 51.7363
lfoot -11.0844 1.0224
ltoes -16.4169
170
root 2.67211 17.945 2.80716 -206.295 -8.32768 182.365
lowerback 6.74698 3.18225 0.71051
upperback 15.2328 1.94466 -3.40618
thorax 12.9607 0.171124 -4.31679
lowerneck 4.15853 1.59942 -8.62591
upperneck 7.04349 1.0494 9.67133
head 1.27447 0.276936 4.3226
rclavicle -1.70955e-014 4.13472e-014
rhumerus -33.5147 9.98498 -78.1552
rradius 34.5238
rwrist 1.23461
rhand -18.9576 23.8914
rfingers 7.12502
rthumb 7.34604 -5.96107
lclavicle -1.70955e-014 4.13472e-014
lhumerus 20.1556 -6.30391 32.405
lradius 101.801
lwrist -0.223243
lhand -53.4671 -16.0932
lfingers 7.12502
lthumb -25.9132 12.1608
rfemur 7.05697 -6.9324 18.4765
rtibia 44.3822
rfoot -23.05 14.6101
rtoes -5.33981
lfemur -26.1932 7.6854 -19.3821
ltibia 53.6404
lfoot -11.7558 2.31262
ltoes -16.4132
171
root 2.64593 17.9878 2.89258 -205.572 -8.50653 182.31
lowerback 6.86568 3.10785 0.649558
upperback 15.0941 1.87687 -3.421
thorax 12.7071 0.144185 -4.29141
lowerneck 4.0198 1.49293 -8.6774
upperneck 6.93767 0.937606 9.63998
head 1.27684 0.229602 4.32198
rclavicle -3.93594e-014 -3.02153e-014
rhumerus -33.8138 9.88743 -78.6362
rradius 34.701
rwrist 1.13206
rhand -18.9941 23.9488
rfingers 7.12502
rthumb 7.31086 -5.90485
lclavicle -3.93594e-014 -3.02153e-014
lhumerus 19.5057 -7.14385 32.0367
lradius 101.562
lwrist 0.215001
lhand -53.4022 -16.358
lfingers 7.12502
lthumb -25.8509 11.905
rfemur 6.11108 -6.80978 18.4515
rtibia 44.1592
rfoot -22.6943 14.3442
rtoes -4.72875
lfemur -25.5119 7.36697 -19.2329
ltibia 55.5032
lfoot -12.4796 3.52633
ltoes -16.5665
